<?xml version="1.0" standalone="no"?>
<!DOCTYPE svg PUBLIC "-//W3C//DTD SVG 20010904//EN"
 "http://www.w3.org/TR/2001/REC-SVG-20010904/DTD/svg10.dtd">
<svg version="1.0" xmlns="http://www.w3.org/2000/svg"
 width="1123.000000pt" height="1123.000000pt" viewBox="0 0 1123.000000 1123.000000"
 preserveAspectRatio="xMidYMid meet">
<metadata>
Created by potrace 1.11, written by Peter Selinger 2001-2013
</metadata>
<g transform="translate(0.000000,1123.000000) scale(0.100000,-0.100000)"
fill="#000000" stroke="none">
<path d="M3567 11084 c-2 -2 -22 -6 -45 -9 -24 -3 -63 -14 -87 -25 -24 -11
-46 -20 -50 -20 -17 0 -119 -82 -177 -142 -142 -147 -305 -431 -453 -788 -15
-36 -36 -84 -46 -107 -10 -23 -19 -48 -19 -55 0 -8 -4 -18 -9 -23 -11 -12
-154 -384 -154 -402 0 -7 -3 -13 -7 -13 -4 0 -7 -6 -7 -12 0 -11 -61 -185 -80
-228 -3 -8 -7 -17 -8 -20 -9 -38 -70 -208 -78 -218 -5 -7 -7 -15 -4 -19 4 -3
3 -11 -1 -17 -5 -6 -22 -51 -38 -101 -16 -49 -33 -93 -39 -97 -5 -4 -7 -8 -3
-8 3 0 -9 -44 -29 -97 -19 -54 -36 -118 -37 -143 -9 -207 238 -321 386 -178
45 44 47 49 134 308 19 58 38 112 41 120 3 8 7 20 9 25 10 37 209 599 223 630
5 11 26 65 46 120 20 55 43 114 50 130 7 17 32 77 55 135 23 58 48 117 56 132
8 14 14 33 14 42 0 9 5 16 10 16 6 0 10 5 10 11 0 5 10 31 22 57 12 26 22 49
23 52 1 3 21 43 45 90 25 47 47 90 49 95 2 6 32 53 66 105 63 98 127 172 157
183 17 6 78 -50 130 -118 12 -16 25 -32 28 -35 8 -8 60 -89 60 -94 0 -3 13
-24 29 -48 42 -63 65 -106 268 -508 291 -575 361 -696 536 -924 61 -80 241
-266 317 -329 25 -20 56 -46 70 -58 68 -57 360 -238 409 -254 12 -3 21 -11 21
-16 0 -5 9 -9 20 -9 11 0 20 -4 20 -8 0 -13 71 -32 118 -32 39 0 134 43 267
120 22 13 54 30 70 38 17 9 32 18 35 22 3 3 44 32 92 63 48 32 93 63 100 70 7
7 31 25 53 42 120 89 389 391 470 526 6 9 41 68 79 130 86 142 110 188 284
532 77 152 137 277 134 277 -4 0 -2 4 3 8 6 4 27 39 47 77 19 39 50 95 67 125
18 30 37 66 44 80 6 14 15 30 20 35 22 29 57 87 57 95 0 6 4 10 8 10 5 0 14
10 19 23 14 29 119 144 144 158 16 8 26 4 57 -28 44 -45 94 -108 112 -143 7
-14 16 -27 19 -30 8 -7 47 -76 73 -130 12 -25 26 -46 30 -48 4 -2 8 -12 8 -22
0 -10 4 -21 9 -24 4 -3 30 -54 56 -113 26 -59 56 -126 66 -149 10 -22 28 -65
39 -95 12 -30 27 -65 33 -79 5 -14 11 -31 13 -39 1 -7 7 -18 13 -24 6 -6 11
-16 11 -23 0 -6 8 -29 17 -50 9 -22 18 -46 19 -54 2 -8 7 -23 13 -35 14 -28
112 -296 116 -317 2 -9 9 -26 15 -37 6 -12 8 -21 5 -21 -3 0 1 -10 9 -22 8
-13 16 -27 17 -33 3 -18 16 -57 119 -355 45 -129 83 -239 84 -245 7 -30 31
-85 38 -85 4 0 8 -5 8 -10 0 -6 10 -21 23 -34 74 -75 194 -90 283 -36 99 62
134 184 86 306 -11 27 -21 54 -22 59 -4 18 -97 290 -141 415 -17 47 -32 92
-34 100 -2 8 -20 58 -40 110 -20 52 -38 102 -40 110 -5 20 -92 255 -111 300
-8 20 -16 43 -18 52 -1 9 -8 23 -15 32 -7 9 -10 16 -6 16 4 0 3 6 -3 13 -6 6
-11 17 -12 22 -14 64 -275 645 -299 665 -3 3 -14 21 -24 40 -26 52 -104 178
-117 190 -3 3 -18 23 -35 45 -27 37 -127 140 -171 175 -32 26 -102 63 -144 76
-14 4 -32 10 -40 13 -23 7 -192 6 -224 -2 -26 -7 -117 -52 -160 -80 -46 -29
-162 -142 -194 -189 -9 -13 -19 -25 -22 -28 -7 -6 -74 -104 -123 -180 -51 -80
-127 -218 -127 -230 0 -5 -4 -10 -10 -10 -5 0 -10 -9 -10 -19 0 -11 -3 -21 -7
-23 -5 -2 -41 -70 -82 -153 -41 -82 -79 -153 -85 -157 -6 -4 -8 -8 -4 -8 9 0
-62 -142 -75 -151 -5 -3 -8 -9 -7 -13 4 -12 -22 -66 -31 -66 -5 0 -9 -7 -9
-15 0 -8 -11 -34 -24 -57 -13 -24 -42 -79 -66 -123 -24 -44 -51 -92 -61 -107
-11 -14 -19 -29 -19 -33 0 -11 -147 -223 -201 -289 -64 -78 -245 -253 -270
-261 -10 -4 -19 -10 -19 -14 0 -11 -142 -105 -241 -160 -41 -24 -67 -27 -79
-13 -3 4 -25 18 -50 31 -62 33 -178 112 -247 167 -62 49 -221 210 -263 265
-14 18 -30 37 -36 43 -9 10 -127 186 -161 241 -39 64 -167 308 -293 560 -80
160 -148 292 -152 293 -5 2 -8 12 -8 23 0 10 -4 19 -10 19 -5 0 -10 9 -10 20
0 11 -4 20 -10 20 -5 0 -10 4 -10 9 0 13 -92 175 -102 179 -4 2 -8 9 -8 15 0
12 -51 90 -62 95 -5 2 -8 8 -8 13 0 6 -10 24 -22 41 -85 119 -227 255 -313
299 -38 20 -83 40 -100 44 -37 9 -144 22 -148 19z"/>
<path d="M3555 7639 c-22 -4 -51 -10 -65 -12 -114 -21 -226 -85 -322 -181 -37
-37 -68 -75 -68 -82 0 -8 -4 -14 -9 -14 -14 0 -67 -118 -86 -190 -23 -86 -24
-265 -2 -330 52 -155 111 -244 225 -342 17 -16 36 -28 41 -28 5 0 11 -4 13 -8
4 -10 124 -67 163 -77 53 -14 59 -15 100 -20 22 -2 42 -5 45 -6 5 -1 37 -1 95
2 161 6 350 111 459 252 85 110 138 264 137 392 -3 209 -106 410 -271 525 -19
14 -38 29 -41 33 -3 5 -12 10 -20 11 -8 2 -36 13 -64 26 -27 13 -56 23 -62 23
-7 0 -13 3 -13 7 0 3 -8 6 -17 7 -10 0 -36 4 -58 7 -67 11 -138 12 -180 5z"/>
<path d="M7505 7638 c-142 -23 -230 -62 -337 -151 -50 -40 -148 -163 -148
-184 0 -7 -5 -13 -12 -13 -6 0 -8 -3 -5 -7 4 -3 3 -11 -2 -17 -10 -14 -41
-106 -49 -149 -19 -102 -3 -271 34 -354 8 -17 14 -35 14 -40 0 -5 21 -40 46
-78 45 -66 98 -125 159 -172 34 -27 162 -91 190 -95 11 -2 25 -7 31 -10 5 -4
37 -10 70 -13 32 -4 68 -8 79 -9 11 -1 26 2 33 7 8 6 12 6 12 -1 0 -6 6 -9 13
-7 6 2 28 6 47 9 196 30 377 151 462 308 13 23 26 45 29 48 5 5 16 30 17 40 0
3 7 23 16 45 22 58 33 135 31 212 -2 65 -15 158 -25 178 -1 3 -3 8 -5 13 -5
21 -27 70 -42 97 -9 17 -21 39 -27 49 -22 40 -102 127 -152 166 -43 34 -104
70 -118 70 -8 0 -17 4 -20 9 -6 9 -96 37 -108 33 -5 -1 -8 1 -8 6 0 4 -24 8
-53 10 -28 2 -68 4 -87 6 -19 1 -57 -2 -85 -6z"/>
<path d="M5588 5694 c-2 -1 -28 -4 -58 -7 -91 -8 -200 -38 -280 -75 -41 -19
-76 -38 -78 -43 -2 -5 -8 -9 -14 -9 -29 0 -239 -200 -210 -200 4 0 3 -4 -3 -8
-15 -11 -51 -81 -70 -137 -23 -66 -30 -201 -15 -278 16 -82 71 -194 126 -259
50 -59 153 -147 172 -148 6 0 12 -4 12 -10 0 -5 11 -12 25 -16 14 -3 25 -9 25
-13 0 -4 6 -8 13 -8 12 -1 113 -43 133 -55 8 -6 9 -22 2 -55 -5 -27 -12 -61
-15 -78 -11 -65 -96 -260 -129 -296 -8 -8 -14 -21 -14 -27 0 -7 -4 -12 -8 -12
-4 0 -15 -12 -24 -27 -43 -73 -288 -273 -334 -273 -8 0 -14 -3 -14 -8 0 -7
-125 -53 -185 -68 -16 -4 -37 -9 -45 -11 -100 -24 -379 -19 -396 8 -3 5 -9 7
-14 4 -12 -8 -121 29 -200 67 -99 48 -177 104 -261 187 -172 172 -268 383
-284 626 -8 111 -9 117 -27 156 -65 136 -258 167 -368 59 -17 -16 -30 -34 -30
-40 0 -5 -5 -10 -11 -10 -5 0 -8 -4 -5 -8 3 -5 -1 -20 -8 -34 -14 -26 -14
-198 -1 -258 3 -14 8 -41 11 -60 3 -19 10 -53 16 -75 5 -22 11 -47 13 -55 4
-21 34 -111 45 -135 57 -128 82 -180 88 -185 4 -3 12 -17 19 -31 34 -78 197
-266 329 -379 84 -72 253 -169 384 -219 94 -37 94 -37 203 -59 72 -15 77 -18
77 -41 1 -14 1 -386 2 -826 0 -440 4 -825 9 -855 15 -98 19 -125 26 -150 4
-14 7 -32 8 -40 4 -36 57 -176 96 -253 10 -21 19 -44 19 -52 0 -8 4 -15 8 -15
5 0 14 -12 21 -28 36 -79 135 -208 240 -312 67 -67 203 -174 254 -199 15 -8
27 -18 27 -23 0 -4 5 -8 10 -8 6 0 53 -20 103 -45 51 -25 100 -45 108 -45 8 0
19 -4 25 -9 21 -19 242 -69 343 -77 91 -7 187 -7 199 0 6 4 13 2 17 -4 4 -6
11 -7 17 -4 5 4 27 8 47 10 20 3 56 7 81 10 25 3 45 5 45 4 0 -1 12 3 28 9 15
6 39 13 53 15 49 9 233 73 244 86 3 3 30 17 60 32 78 39 107 57 182 110 62 45
215 189 266 252 75 91 177 265 222 381 27 68 39 105 35 105 -3 0 -1 8 4 18 20
37 57 255 56 325 0 26 3 47 8 47 4 0 5 5 2 11 -10 16 -12 69 -3 75 4 3 4 13 0
22 -10 20 -8 84 2 100 4 7 4 12 -1 12 -10 0 -9 93 1 109 4 6 4 11 -1 11 -10 0
-9 93 1 109 4 6 4 11 -1 11 -4 0 -8 29 -8 65 0 36 4 65 8 65 4 0 4 8 0 18 -10
21 -10 203 0 219 4 6 4 14 -1 16 -4 3 -6 32 -4 64 3 68 3 57 0 156 -2 44 1 81
5 84 4 3 4 10 0 16 -5 7 -7 35 -6 62 3 64 3 81 1 131 -1 22 2 45 6 52 4 7 4
12 -1 12 -11 0 -9 129 3 139 5 5 23 12 39 15 204 35 437 142 610 280 93 74
228 217 283 301 15 22 29 42 32 45 24 24 145 276 141 295 -1 3 5 18 12 33 13
25 41 131 51 192 2 14 7 41 11 60 13 72 12 215 -1 260 -50 164 -278 210 -388
79 -42 -49 -55 -92 -61 -196 -3 -53 -10 -104 -15 -113 -5 -10 -7 -20 -4 -23 3
-3 1 -21 -5 -40 -7 -19 -13 -43 -15 -53 -6 -27 -37 -105 -52 -129 -7 -11 -13
-24 -13 -28 0 -9 -68 -125 -87 -147 -241 -288 -545 -416 -899 -377 -50 6 -101
18 -180 41 -82 24 -263 122 -273 148 -2 4 -9 8 -16 8 -15 0 -130 116 -183 185
-39 50 -117 185 -108 185 3 0 -1 10 -9 23 -19 29 -52 140 -60 201 -4 27 -9 53
-11 56 -5 8 39 30 59 30 14 0 191 85 211 102 92 74 162 144 171 171 3 9 9 17
13 17 14 0 74 141 86 202 15 70 13 198 -4 253 -16 54 -54 139 -63 143 -5 2 -8
10 -8 18 0 8 -4 14 -10 14 -5 0 -10 5 -10 10 0 17 -81 104 -134 145 -15 11
-33 26 -41 32 -20 18 -171 93 -188 93 -7 0 -17 3 -21 7 -3 4 -12 8 -19 9 -7 1
-30 7 -52 12 -50 14 -239 34 -247 26z m-208 -2406 c0 -101 1 -192 4 -203 2
-11 1 -24 -2 -29 -4 -7 -4 -74 -1 -131 1 -5 0 -183 0 -395 -1 -212 1 -394 3
-405 2 -11 1 -24 -2 -29 -3 -5 -4 -32 -4 -60 7 -410 5 -388 32 -431 54 -89
109 -119 211 -117 105 1 204 89 213 188 2 19 6 37 9 41 4 3 4 10 0 16 -5 8 -7
87 -3 102 5 16 2 84 -4 93 -3 6 -2 13 4 17 6 4 7 11 4 17 -5 8 -8 90 -4 111 4
20 3 78 -3 83 -3 3 -2 16 3 28 4 13 5 28 0 35 -4 7 -4 27 0 45 4 18 3 42 -1
54 -5 12 -4 24 2 27 5 4 6 13 1 22 -5 8 -6 32 -2 52 4 21 3 47 -1 59 -5 12 -4
24 2 27 5 4 6 13 1 22 -5 8 -6 32 -2 52 4 21 3 47 -1 59 -5 12 -4 24 2 27 5 4
6 13 1 22 -5 8 -6 32 -2 52 4 21 3 47 -1 59 -5 12 -4 24 2 27 5 4 6 11 3 17
-5 8 -8 89 -4 111 5 22 2 85 -4 95 -3 6 -2 13 4 17 6 4 7 11 4 17 -5 8 -8 90
-4 111 4 20 3 78 -3 83 -3 3 -2 16 3 29 5 13 6 26 3 29 -3 3 -6 26 -5 51 1 90
1 88 16 73 8 -7 26 -22 42 -33 15 -11 33 -25 39 -32 52 -51 370 -223 413 -223
5 0 37 -9 71 -20 34 -11 65 -19 69 -18 4 1 14 -2 22 -5 8 -3 26 -7 40 -9 l25
-3 0 -815 c0 -807 -2 -910 -18 -910 -5 0 -6 -4 -3 -9 3 -5 -2 -33 -11 -62 -9
-30 -18 -60 -19 -67 -5 -29 -68 -150 -110 -214 -66 -99 -238 -268 -273 -268
-6 0 -11 -4 -11 -8 0 -11 -155 -88 -195 -98 -16 -4 -34 -10 -40 -14 -29 -21
-297 -53 -335 -40 -3 1 -27 3 -55 4 -73 5 -178 33 -275 74 -215 90 -400 268
-495 477 -15 33 -31 67 -35 76 -4 8 -18 55 -31 105 l-24 89 0 840 0 840 25 3
c14 2 32 6 40 9 8 3 18 6 22 5 16 -4 226 70 297 104 82 39 261 153 261 166 0
4 5 8 10 8 6 0 24 14 42 30 17 17 33 30 35 30 2 0 3 -82 3 -182z"/>
</g>
</svg>
